<svg width="200" height="200" viewBox="0 0 200 200" fill="none" xmlns="http://www.w3.org/2000/svg">
<defs>
    <style>
        .fill-green {
            fill:rgb(129, 177, 125);
        }

        @media (prefers-color-scheme: dark) {
            .fill-green {
                fill: #B9FFB3;
            }
        }
        
    </style>
</defs>
<path class="fill-green" fill-rule="evenodd" clip-rule="evenodd" d="M174.805 6.6582C175.337 6.9712 176.049 7.64622 176.386 8.15818C176.922 8.9705 177 9.31173 177 10.8363C177 12.414 176.934 12.6773 176.323 13.5504C175.938 14.0996 175.209 14.7428 174.635 15.0391C173.49 15.6307 174.266 15.5266 158.1 17.2581C144 18.7682 122.126 21.1329 120.417 21.3319C119.238 21.469 119.103 21.5568 117.359 23.3158C115.139 25.5545 114.209 27.2929 113.901 29.7778C113.536 32.7206 114.199 34.6955 116.859 38.5931C119.586 42.5888 120.412 44.9038 120.412 48.5528C120.412 52.0421 119.289 54.9418 116.079 59.7408C114.277 62.4347 113.722 63.7233 113.518 65.693C113.236 68.4091 114.147 70.8923 116.709 74.3876C119.079 77.6224 120.174 80.2413 120.184 82.7002L120.187 83.5606L141.656 83.4906C153.464 83.4522 163.188 83.3576 163.265 83.2802C163.342 83.2029 161.31 80.2576 158.75 76.7353C152.169 67.6812 151.663 67.0277 151.066 66.7998C150.769 66.6864 143.863 66.5963 135.473 66.5963C127.189 66.5963 120.412 66.5159 120.412 66.4175C120.412 66.2666 121.934 62.2053 122.724 60.2486L122.961 59.6597L136.818 59.5398C145.454 59.465 151.141 59.5034 151.912 59.6416C155.759 60.3311 157.292 61.904 165.297 73.3713C166.641 75.2965 168.42 77.8371 169.25 79.0171C171.374 82.0374 171.712 82.7867 171.712 84.4696C171.712 87.5488 169.352 89.9799 165.919 90.4359C165.269 90.5221 164.737 90.682 164.737 90.7909C164.737 90.9 164.58 92.0302 164.388 93.3026C164.196 94.5747 163.186 101.51 162.143 108.714C159.787 124.995 156.986 144.214 155.626 153.429C155.058 157.279 153.686 166.73 152.576 174.431C151.467 182.132 150.447 188.789 150.308 189.223C149.035 193.229 145.573 196.985 141.767 198.49C138.83 199.652 140.439 199.612 97.5034 199.61C58.2496 199.608 57.4897 199.6 55.6393 199.155C49.877 197.769 45.5871 193.397 44.2472 187.546C44.0744 186.792 43.4762 182.973 42.9177 179.061C41.7349 170.776 38.7934 150.636 37.9535 145.073C37.6347 142.962 36.5636 135.746 35.5736 129.039C34.5834 122.332 33.0145 111.814 32.087 105.665C31.1595 99.517 30.2728 93.6228 30.1164 92.567L29.8323 90.6475L28.6028 90.5138C26.2545 90.2584 24.2693 88.9289 23.4071 87.0342C22.9062 85.9337 22.8594 83.8235 23.3117 82.737C23.8515 81.4403 34.0524 66.784 36.1856 64.24C37.6524 62.4907 39.6122 61.0388 41.5848 60.2405L42.8988 59.7085L56.6802 59.6455C64.26 59.6107 70.4611 59.6107 70.4606 59.6455C70.46 59.68 70.2091 60.4198 69.9029 61.2893C69.4859 62.4729 69.3449 63.3369 69.3413 64.7278L69.3365 66.5857L43.3112 66.7093L42.7006 67.3868C41.4763 68.7447 37.4945 74.2342 32.3401 81.6706L31.0488 83.5338H81.0366L81.0312 83.0256C81.0209 82.0435 79.9897 80.0137 78.5204 78.0838C76.6117 75.5763 75.9948 74.5041 75.2068 72.3244C73.0812 66.4459 74.0402 60.2866 77.8929 55.0703C78.4959 54.2539 79.2981 52.931 79.6754 52.1304C80.2534 50.9042 80.3614 50.4039 80.3614 48.9509C80.3616 46.5671 79.8878 45.2888 77.8261 42.1134C76.8554 40.6182 75.7714 38.7826 75.4172 38.0342C73.6768 34.3579 73.6361 30.7152 75.2932 26.9542C75.6091 26.2376 75.8382 25.622 75.8026 25.5863C75.7669 25.5504 73.8672 25.7693 71.5809 26.0725C65.1567 26.9244 63.797 26.8058 62.5197 25.2824C61.4421 23.9972 61.799 22.0408 63.3175 20.9071C64.5408 19.9938 65.881 19.6539 70.574 19.0672C73.0491 18.7576 75.6105 18.4022 76.2662 18.2773C76.9218 18.1522 81.4781 17.5386 86.3912 16.9135C91.3044 16.2884 97.248 15.5226 99.5993 15.2116C101.951 14.9009 111.316 13.6886 120.412 12.5176C145.794 9.25053 160.984 7.27856 166.425 6.54438C172.001 5.79168 173.363 5.8102 174.805 6.6582ZM105.756 22.6878C103.218 22.9809 103.094 23.0211 101.706 24.0023C99.361 25.6602 97.946 28.2087 97.7462 31.1344C97.5851 33.4952 97.9638 34.5315 100.187 37.8118C103.532 42.7473 104.104 44.3026 104.088 48.4168C104.078 51.0677 104.018 51.5019 103.466 52.8913C102.547 55.206 101.882 56.4334 100.24 58.8478C98.333 61.6504 97.7583 62.9751 97.4791 65.209C97.053 68.6214 97.8162 70.8792 100.697 74.7263C103.087 77.9184 103.978 80.0153 103.984 82.4611L103.987 83.5338H113.263L113.106 82.4611C112.878 80.9006 112.341 79.8188 110.662 77.5424C108.784 74.9964 108.022 73.5669 107.11 70.8759C106.474 69.0008 106.385 68.4403 106.373 66.2576C106.351 62.3455 107.328 59.5601 110.386 54.814C112.673 51.2662 113.099 50.065 112.92 47.6842C112.768 45.6673 112.135 44.2288 109.861 40.7385C106.965 36.2926 106.337 34.4496 106.515 30.9151C106.632 28.5946 107.552 25.3573 108.613 23.5351C108.915 23.0161 109.162 22.5333 109.162 22.4624C109.162 22.3027 108.997 22.3136 105.756 22.6878ZM88.8588 24.3443L85.3187 24.7164L84.2906 25.7268C83.7252 26.2823 82.9388 27.3948 82.5433 28.199C81.9263 29.4533 81.8133 29.951 81.7479 31.7044C81.6554 34.1858 82.0707 35.5607 83.6714 38.0715C86.2832 42.1678 86.6673 42.8654 87.2012 44.4822C88.0542 47.0659 88.1503 48.7095 87.5864 51.0832C86.8959 53.9906 85.9187 56.1521 84.0103 58.9932C81.6891 62.4489 81.2353 63.5074 81.0929 65.8005C80.9032 68.8524 81.9843 71.5963 84.7084 74.9752C86.9339 77.736 88.0117 80.2664 88.0117 82.7314V83.5338H97.2764L97.1153 82.5769C96.825 80.8522 96.3663 79.9139 94.6205 77.4731C91.5346 73.159 90.3819 70.0796 90.3801 66.1447C90.3783 62.1603 91.5584 58.736 94.4301 54.3926C95.252 53.1492 96.1188 51.578 96.3557 50.901C97.307 48.1849 96.7222 45.5982 94.332 41.9461C92.5187 39.1753 91.3172 36.8791 90.9232 35.4315C90.2313 32.8877 90.7947 28.6484 92.2543 25.4174C92.6562 24.5276 92.8245 23.926 92.6663 23.9432C92.5194 23.9592 90.806 24.1396 88.8588 24.3443ZM37.1667 90.9298C37.1698 91.147 37.2647 91.7315 37.3781 92.2283C37.4913 92.7251 38.1931 97.3999 38.9379 102.617C39.6826 107.833 40.604 114.185 40.9856 116.731C41.7355 121.735 43.4631 133.512 44.6957 142.024C45.9066 150.388 48.2692 166.579 49.7539 176.69C50.5016 181.782 51.2806 186.406 51.4847 186.965C52.2812 189.146 53.7633 190.755 55.9802 191.848L57.2989 192.498H137.625L138.908 191.978C141.292 191.011 143.246 188.712 143.803 186.218C143.933 185.632 144.187 184.061 144.366 182.727C144.916 178.634 148.934 150.89 149.999 143.831C150.552 140.167 151.768 131.884 152.702 125.426C153.635 118.967 154.644 112.006 154.945 109.956C155.245 107.907 155.954 103.029 156.521 99.1162C157.088 95.2036 157.61 91.6723 157.682 91.2685L157.813 90.5346H97.4868C40.1819 90.5346 37.1615 90.5544 37.1667 90.9298ZM109.499 102.708C118.782 104.096 124.245 106.572 125.884 110.132L126.375 111.198V160.43L125.671 161.898C123.269 166.911 117.551 169.479 105.449 170.977C102.074 171.395 92.6429 171.321 88.7085 170.846C82.7507 170.127 78.7362 169.098 75.2658 167.402C72.9424 166.267 70.5909 164.279 69.6344 162.641C68.4275 160.573 68.4437 160.945 68.4422 135.362L68.441 111.65L68.9655 110.521C70.0356 108.217 72.9865 106.139 77.2766 104.667C79.8023 103.8 84.8689 102.771 88.4253 102.401C93.1622 101.909 105.341 102.086 109.499 102.708ZM89.9242 108.622C83.6998 109.268 77.6479 110.902 75.8578 112.42C75.0943 113.067 75.0831 113.1 75.4188 113.719C76.7967 116.259 89.2285 118.394 100.274 117.987C109.156 117.66 115.582 116.54 118.535 114.802C119.561 114.199 119.985 113.341 119.58 112.688C118.681 111.239 111.692 109.255 105.241 108.618C102.433 108.341 92.6123 108.343 89.9242 108.622ZM74.7366 123.645C74.7366 125.43 74.8531 127.12 75.0133 127.658C75.6967 129.953 78.3643 131.417 83.8784 132.523C88.869 133.524 91.3827 133.75 97.4618 133.746C106.974 133.74 115.038 132.386 118.238 130.258C119.929 129.134 120.187 128.319 120.187 124.108V120.561L119.343 120.989C115.258 123.061 107.075 124.404 98.5033 124.407C88.9137 124.411 79.5523 123.016 75.5803 120.991L74.7366 120.561V123.645ZM74.9616 140.064C75.0705 143.636 75.0934 143.78 75.6764 144.547C77.5048 146.95 84.2821 148.737 93.5427 149.258C103.687 149.828 115.138 148.113 118.531 145.516C119.838 144.516 119.962 144.036 119.962 139.998V136.369L119.118 136.801C115.741 138.53 107.894 139.888 99.8243 140.14C90.3265 140.436 81.6005 139.151 75.1866 136.512C74.8921 136.39 74.8635 136.843 74.9616 140.064ZM74.7379 154.727C74.7393 158.095 74.9555 158.946 76.1354 160.231C79.6569 164.065 93.1181 165.963 106.237 164.475C114.305 163.56 118.843 161.643 119.694 158.792C119.955 157.915 120.083 151.961 119.84 151.961C119.774 151.961 119.325 152.163 118.844 152.409C115.299 154.224 105.614 155.8 98.0049 155.8C89.7854 155.8 80.5275 154.372 75.9311 152.394C75.3774 152.156 74.8819 151.961 74.8304 151.961C74.7789 151.961 74.7373 153.206 74.7379 154.727ZM130.311 179.638C132.645 181.014 132.737 184.229 130.483 185.612C129.758 186.057 129.366 186.062 97.2368 186.006C65.1189 185.949 64.7168 185.943 64.1241 185.497C62.2728 184.103 62.3703 181.084 64.3082 179.807C64.6781 179.563 65.5626 179.345 66.5125 179.264C67.3851 179.19 81.9198 179.139 98.8118 179.151C129.368 179.174 129.529 179.176 130.311 179.638Z" />
</svg>
